<?xml version="1.0" encoding="UTF-8"?>
<svg version="1.1" xmlns="http://www.w3.org/2000/svg" width="510" height="508">
<path d="M0 0 C168.3 0 336.6 0 510 0 C510 167.64 510 335.28 510 508 C341.7 508 173.4 508 0 508 C0 340.36 0 172.72 0 0 Z " fill="#000000" transform="translate(0,0)"/>
<path d="M0 0 C0.92683594 0.18175781 1.85367188 0.36351563 2.80859375 0.55078125 C19.81697441 4.65625244 36.03044591 20.42766005 45.1875 34.6875 C48.67887878 40.77600796 50.88200006 47.33136974 53 54 C53.36738281 55.06089844 53.73476563 56.12179688 54.11328125 57.21484375 C58.80780583 77.2544663 53.89207655 97.20562818 43.3984375 114.3984375 C40.14097073 119.45294452 36.2510031 123.76471226 32 128 C31.41605469 128.64324219 30.83210937 129.28648437 30.23046875 129.94921875 C21.79201804 139.05958356 8.47024568 146.14975598 -4 147 C-4 147.66 -4 148.32 -4 149 C-23.26403342 151.35300507 -40.7414179 150.72701005 -58 141 C-58.97582031 140.54496094 -59.95164063 140.08992187 -60.95703125 139.62109375 C-64.13069739 137.93037302 -66.43312179 136.06686312 -69.0625 133.625 C-69.92746094 132.82191406 -70.79242188 132.01882812 -71.68359375 131.19140625 C-72.44800781 130.46824219 -73.21242187 129.74507812 -74 129 C-74.86625 128.195625 -75.7325 127.39125 -76.625 126.5625 C-83.06863911 119.61015254 -88.15735626 112.68261487 -92 104 C-92.29648438 103.360625 -92.59296875 102.72125 -92.8984375 102.0625 C-100.02695997 86.25270758 -100.02372621 66.42641638 -95 50 C-94.69255859 48.93458984 -94.69255859 48.93458984 -94.37890625 47.84765625 C-91.0309952 37.67915623 -84.39319573 27.66642252 -77 20 C-76.01 19.67 -75.02 19.34 -74 19 C-74 18.34 -74 17.68 -74 17 C-70.18402919 13.76278476 -66.07132257 10.90592541 -62 8 C-61.30003906 7.484375 -60.60007813 6.96875 -59.87890625 6.4375 C-54.12849254 2.48022605 -47.69493732 0.76097139 -41 -1 C-40.15308594 -1.22816406 -39.30617187 -1.45632812 -38.43359375 -1.69140625 C-25.50144412 -4.7380247 -12.76474894 -2.72161314 0 0 Z " fill="#010101" transform="translate(277,103)"/>
<path d="M0 0 C1.23878906 -0.00386719 2.47757812 -0.00773437 3.75390625 -0.01171875 C4.92824219 -0.01042969 6.10257812 -0.00914063 7.3125 -0.0078125 C8.38113281 -0.00668457 9.44976562 -0.00555664 10.55078125 -0.00439453 C13 0.125 13 0.125 14 1.125 C15.7024962 1.44900447 17.41247898 1.73402262 19.125 2 C23.77414418 2.82254089 27.7600962 4.07181824 32 6.125 C32.94359375 6.52460937 33.8871875 6.92421875 34.859375 7.3359375 C56.89172732 16.87626231 73.25695117 32.71967714 84 54.125 C84.46277344 54.93324219 84.92554688 55.74148437 85.40234375 56.57421875 C96.14986287 75.81521802 96.25586049 101.25945943 91 122.125 C87.31387135 134.78889976 81.01618024 145.73652657 73 156.125 C72.36449219 156.98867187 71.72898437 157.85234375 71.07421875 158.7421875 C70.47222656 159.54914063 69.87023437 160.35609375 69.25 161.1875 C68.71890625 161.90035156 68.1878125 162.61320313 67.640625 163.34765625 C65.8925459 165.24140861 64.36048509 166.13462256 62 167.125 C62 167.785 62 168.445 62 169.125 C41.96070727 186.125 41.96070727 186.125 32 186.125 C32 186.785 32 187.445 32 188.125 C27.126739 189.7162689 23.19209404 190.33692221 18 190.125 C18 190.785 18 191.445 18 192.125 C14.49287852 193.29404049 11.15838509 193.48192512 7.5 193.6875 C6.41924194 193.74901245 6.41924194 193.74901245 5.31665039 193.81176758 C-23.26017556 195.35206519 -47.46187712 188.39405642 -69 169.125 C-85.36245668 154.12196192 -99.16363004 131.7845297 -100.875 109.14453125 C-101.34823711 97.7128972 -101.60139967 86.34709637 -99 75.125 C-98.505 74.63 -98.505 74.63 -98 74.125 C-97.7493981 72.71196762 -97.52538079 71.29420526 -97.3125 69.875 C-92.7579814 46.64035439 -74.39454666 26.71119185 -55.49609375 13.73828125 C-50.76535727 10.6807004 -46.77473752 8.125 -41 8.125 C-41 7.465 -41 6.805 -41 6.125 C-38.18986495 5.30348263 -35.37731814 4.49268438 -32.5625 3.6875 C-31.77939453 3.45740234 -30.99628906 3.22730469 -30.18945312 2.99023438 C-20.11569032 0.12978321 -10.43769605 -0.03341845 0 0 Z M-52 37.125 C-52.76570313 37.65867187 -53.53140625 38.19234375 -54.3203125 38.7421875 C-55.15175781 39.42667969 -55.15175781 39.42667969 -56 40.125 C-56 40.785 -56 41.445 -56 42.125 C-56.58007812 42.36347656 -57.16015625 42.60195312 -57.7578125 42.84765625 C-67.43102314 48.3583529 -73.89699621 62.78165404 -77 73.125 C-77.2784375 74.0325 -77.556875 74.94 -77.84375 75.875 C-81.71117739 90.19880515 -81.81423347 107.36464745 -76 121.125 C-75.649375 122.0428125 -75.29875 122.960625 -74.9375 123.90625 C-69.62734466 137.46112021 -62.06200142 147.80504605 -51 157.125 C-50.17242187 157.85976563 -50.17242187 157.85976563 -49.328125 158.609375 C-46.32078678 161.24467138 -43.68311849 162.67767484 -40 164.125 C-38.18355912 165.09683648 -36.37132139 166.07655436 -34.5625 167.0625 C-19.27928734 174.6669209 -2.55615654 174.16774966 14 172.125 C14 171.465 14 170.805 14 170.125 C14.9075 170.063125 15.815 170.00125 16.75 169.9375 C32.8146646 167.57314412 46.94722117 156.32706099 57 144.125 C67.4143639 129.88090876 73.57779704 113.68840889 73.375 96 C73.39240234 94.47052734 73.39240234 94.47052734 73.41015625 92.91015625 C73.38501818 86.3826376 72.37448688 81.17582732 70 75.125 C69.45279297 73.38283203 69.45279297 73.38283203 68.89453125 71.60546875 C62.0719246 50.8420846 47.39949772 36.64012382 28.359375 26.75390625 C0.79352387 13.95547537 -28.66907562 19.31001301 -52 37.125 Z " fill="#F8F8F8" transform="translate(259,79.875)"/>
<path d="M0 0 C14.85 0 29.7 0 45 0 C46 1 46 1 46.1328125 3.25 C46.13023437 4.1575 46.12765625 5.065 46.125 6 C46.12886719 7.36125 46.12886719 7.36125 46.1328125 8.75 C46 11 46 11 45 12 C33.78 12 22.56 12 11 12 C11.33 68.76 11.66 125.52 12 184 C28.83 184.495 28.83 184.495 46 185 C46 188.3 46 191.6 46 195 C45.67 195.33 45.34 195.66 45 196 C30.15 196 15.3 196 0 196 C0 131.32 0 66.64 0 0 Z " fill="#FAFAFA" transform="translate(100,79)"/>
<path d="M0 0 C6.39037231 -0.02527062 12.78073183 -0.04283317 19.17114258 -0.05493164 C21.34692873 -0.05997308 23.52271147 -0.06680607 25.69848633 -0.07543945 C28.81853067 -0.08751338 31.93853038 -0.09323005 35.05859375 -0.09765625 C36.52733192 -0.10539818 36.52733192 -0.10539818 38.02574158 -0.11329651 C39.37702904 -0.11340981 39.37702904 -0.11340981 40.75561523 -0.11352539 C41.95141457 -0.11685631 41.95141457 -0.11685631 43.17137146 -0.12025452 C45 0 45 0 46 1 C46.09994659 3.50183834 46.1344141 5.97613253 46.12698364 8.47851562 C46.12854363 9.27087364 46.13010362 10.06323166 46.13171089 10.87960052 C46.1357241 13.55516884 46.13253001 16.23068118 46.12939453 18.90625 C46.13074843 20.81608107 46.1325283 22.72591188 46.13470459 24.63574219 C46.13928028 29.83807001 46.13748881 35.04037811 46.1343255 40.2427063 C46.1318026 45.67417455 46.13413924 51.10564106 46.13571167 56.53710938 C46.13753357 65.66015935 46.13512652 74.78320125 46.13037109 83.90625 C46.12492844 94.47004596 46.12669108 105.03382262 46.1321975 115.5976181 C46.13672805 124.64980993 46.13737946 133.70199594 46.13475883 142.75418854 C46.13319573 148.1684043 46.13300318 153.58261098 46.13629532 158.99682617 C46.13917319 164.08566191 46.1371999 169.17447264 46.13140106 174.26330566 C46.13007301 176.13667764 46.13046834 178.01005169 46.13266373 179.88342285 C46.13537347 182.42947227 46.13199628 184.97544023 46.12698364 187.52148438 C46.12921436 188.27273338 46.13144509 189.02398239 46.13374341 189.79799652 C46.11414985 194.88585015 46.11414985 194.88585015 45 196 C43.58774954 196.0928726 42.17091066 196.11746772 40.75561523 196.11352539 C39.85475693 196.11344986 38.95389862 196.11337433 38.02574158 196.11329651 C37.04658279 196.10813522 36.06742401 196.10297394 35.05859375 196.09765625 C34.06118668 196.0962413 33.0637796 196.09482635 32.03614807 196.09336853 C28.83656876 196.08775114 25.63705831 196.07519571 22.4375 196.0625 C20.27408955 196.05748724 18.11067801 196.05292395 15.94726562 196.04882812 C10.63148371 196.03777606 5.31575354 196.02049979 0 196 C0 192.37 0 188.74 0 185 C11.55 185 23.1 185 35 185 C35 127.91 35 70.82 35 12 C23.78 12 12.56 12 1 12 C0 11 0 11 -0.09765625 8.49609375 C-0.08605469 7.48675781 -0.07445312 6.47742188 -0.0625 5.4375 C-0.05347656 4.42558594 -0.04445313 3.41367188 -0.03515625 2.37109375 C-0.02355469 1.58863281 -0.01195312 0.80617188 0 0 Z " fill="#F8F8F8" transform="translate(365,79)"/>
<path d="M0 0 C24.09 0 48.18 0 73 0 C73 0.33 73 0.66 73 1 C71.73542969 1.25394531 70.47085938 1.50789062 69.16796875 1.76953125 C67.50768863 2.11659546 65.84753901 2.46428434 64.1875 2.8125 C63.35412109 2.97814453 62.52074219 3.14378906 61.66210938 3.31445312 C60.85966797 3.48525391 60.05722656 3.65605469 59.23046875 3.83203125 C58.49207764 3.98389893 57.75368652 4.1357666 56.99291992 4.29223633 C54.65828697 5.12135564 53.67149759 6.20211744 52 8 C48.7860375 9.9640882 45.83651931 11.688737 42.3125 13 C39.53588103 14.2007001 38.09511231 15.83941543 36 18 C35.23945312 18.43699219 34.47890625 18.87398437 33.6953125 19.32421875 C30.66350938 21.20920939 28.38989993 23.34471842 25.875 25.875 C25.02679687 26.71804687 24.17859375 27.56109375 23.3046875 28.4296875 C21.1392037 30.84475248 19.60419386 33.19623091 18 36 C16.66666667 37.33333333 15.33333333 38.66666667 14 40 C10.62218245 44.55834773 8.66802737 48.99901645 6.875 54.3125 C6.61638184 55.06072021 6.35776367 55.80894043 6.09130859 56.57983398 C4.36410986 61.66805316 2.96236407 66.70699759 2 72 C1.34 72 0.68 72 0 72 C0 48.24 0 24.48 0 0 Z " fill="#F9F9F9" transform="translate(0,0)"/>
<path d="M0 0 C24.42 0 48.84 0 74 0 C74 22.44 74 44.88 74 68 C70.72197029 64.72197029 70.44908378 63.56535157 69.5625 59.1875 C68.43780772 54.31383347 67.07661607 51.00892397 64 47 C63.04268964 45.3087517 62.08541249 43.61748445 61.12890625 41.92578125 C57.67041597 36.02600372 54.09863028 30.61304644 49 26 C48.35675781 25.41089844 47.71351563 24.82179688 47.05078125 24.21484375 C43.82902825 21.31467053 40.97773241 18.79839572 37 17 C37 16.34 37 15.68 37 15 C36.32582031 14.74476562 35.65164063 14.48953125 34.95703125 14.2265625 C31.44867244 12.77131195 28.07321448 11.09052165 24.6875 9.375 C24.04232422 9.05015625 23.39714844 8.7253125 22.73242188 8.390625 C21.15402459 7.59558044 19.57688306 6.79804366 18 6 C18 5.34 18 4.68 18 4 C16.17662109 3.81824219 16.17662109 3.81824219 14.31640625 3.6328125 C12.73171883 3.46402922 11.1470861 3.29473184 9.5625 3.125 C8.76005859 3.04636719 7.95761719 2.96773438 7.13085938 2.88671875 C5.07829006 2.66154237 3.03706991 2.33777413 1 2 C0.67 1.34 0.34 0.68 0 0 Z " fill="#F7F7F7" transform="translate(436,0)"/>
<path d="M0 0 C4.9462493 2.95733643 7.69485337 6.86951011 9.4375 12.3125 C9.74451728 15.12960079 9.762301 17.91830954 9.75 20.75 C9.76611328 21.48798828 9.78222656 22.22597656 9.79882812 22.98632812 C9.80387376 28.6626723 8.68756547 32.76278901 4.82421875 37.140625 C-0.8702582 41.90565859 -5.79177243 43.78066907 -13.26171875 43.5546875 C-19.94829139 42.85083775 -24.05294089 40.45663648 -28.3359375 35.32421875 C-32.77436636 28.04463001 -32.84859283 18.70330827 -30.91015625 10.578125 C-28.71355934 4.95936209 -25.73077497 2.31949635 -20.5625 -0.6875 C-14.17307915 -2.81730695 -6.16240967 -2.88354264 0 0 Z " fill="#FAFAFA" transform="translate(393.5625,347.6875)"/>
<path d="M0 0 C2 1 2 1 3.125 4.1875 C3.91680237 7.63749602 4.1714979 10.484293 4 14 C4.99 14.33 5.98 14.66 7 15 C8.44795215 17.60981698 9.75009878 20.17314586 11 22.875 C11.68178874 24.33341276 12.369114 25.78925271 13.0625 27.2421875 C13.36285156 27.8904248 13.66320313 28.53866211 13.97265625 29.20654297 C15.08885394 31.15511432 16.39012372 32.44764796 18 34 C18.47566406 34.79921875 18.95132812 35.5984375 19.44140625 36.421875 C26.91117182 48.77787821 41.2108644 57.21767805 54 63 C54 63.66 54 64.32 54 65 C55.19625 64.95875 56.3925 64.9175 57.625 64.875 C61.42329953 64.86148292 64.44975618 65.57990247 68 67 C68 67.33 68 67.66 68 68 C45.56 68 23.12 68 0 68 C0 45.56 0 23.12 0 0 Z " fill="#F8F8F8" transform="translate(0,440)"/>
<path d="M0 0 C0.33 0 0.66 0 1 0 C1 22.44 1 44.88 1 68 C-20.45 68 -41.9 68 -64 68 C-63.505 67.01 -63.505 67.01 -63 66 C-61.12329396 65.39538338 -59.22161299 64.86782289 -57.3125 64.375 C-50.52492879 62.40247931 -44.91577254 59.36050666 -38.8984375 55.70703125 C-36 54 -36 54 -33 53 C-33 52.34 -33 51.68 -33 51 C-31.3125 49.58984375 -31.3125 49.58984375 -29 47.9375 C-16.44457931 38.41745574 -6.89206616 24.29025992 -3 9 C-2.03188547 5.98916381 -1.0184206 2.99415657 0 0 Z " fill="#F8F8F8" transform="translate(509,440)"/>
<path d="M0 0 C0.98291016 0.04833984 1.96582031 0.09667969 2.97851562 0.14648438 C4.51475586 0.2305957 4.51475586 0.2305957 6.08203125 0.31640625 C7.11779297 0.36861328 8.15355469 0.42082031 9.22070312 0.47460938 C11.77895174 0.60429018 14.33681063 0.73925603 16.89453125 0.87890625 C16.56453125 2.52890625 16.23453125 4.17890625 15.89453125 5.87890625 C14.57453125 5.87890625 13.25453125 5.87890625 11.89453125 5.87890625 C12.00152344 6.47058594 12.10851562 7.06226563 12.21875 7.671875 C12.78829575 11.42597765 13.15736177 14.12326851 11.89453125 17.75390625 C7.23338548 22.70637363 1.34589686 23.31299699 -5.10546875 23.87890625 C-5.10546875 24.53890625 -5.10546875 25.19890625 -5.10546875 25.87890625 C-4.00847656 25.976875 -2.91148437 26.07484375 -1.78125 26.17578125 C-0.32672997 26.32592525 1.12769243 26.47701708 2.58203125 26.62890625 C3.66387695 26.72171875 3.66387695 26.72171875 4.76757812 26.81640625 C9.52828508 27.33812756 12.52455004 28.20196939 15.89453125 31.87890625 C17.10784526 36.09159278 16.38766587 39.89263701 14.45703125 43.75390625 C8.6270557 48.58852012 1.8860832 49.38987763 -5.515625 49.171875 C-9.28878855 48.74504654 -11.80924761 47.7724801 -15.10546875 45.87890625 C-17.45096549 42.36066114 -17.68538278 41.02114931 -17.10546875 36.87890625 C-14.60546875 34.12890625 -14.60546875 34.12890625 -12.10546875 31.87890625 C-12.10546875 31.21890625 -12.10546875 30.55890625 -12.10546875 29.87890625 C-12.43546875 29.54890625 -12.76546875 29.21890625 -13.10546875 28.87890625 C-13.39903029 25.25831393 -12.95611194 23.00186663 -11.10546875 19.87890625 C-11.58886719 19.32074219 -12.07226562 18.76257813 -12.5703125 18.1875 C-14.79033062 14.84899947 -14.70181762 12.2163802 -14.59765625 8.29296875 C-14.03725854 5.5443514 -13.40522241 4.61339817 -11.29296875 2.81640625 C-7.18816059 0.32132678 -4.69547555 -0.24427329 0 0 Z " fill="#FBFBFB" transform="translate(325.10546875,356.12109375)"/>
<path d="M0 0 C2.97 0 5.94 0 9 0 C9 15.51 9 31.02 9 47 C6.69 47 4.38 47 2 47 C1.67 45.68 1.34 44.36 1 43 C0.34 43 -0.32 43 -1 43 C-1 43.66 -1 44.32 -1 45 C-6.1096172 47.60694755 -9.25617095 48.70187527 -15 47 C-19.72135846 43.22291323 -21.69302388 39.7046212 -22.37109375 33.73046875 C-22.49687241 27.0198071 -22.41758809 22.03731643 -18.484375 16.453125 C-15.69867574 13.72607204 -13.42822037 13.03892912 -9.5625 12.6875 C-6 13 -6 13 -1 16 C-0.67 10.72 -0.34 5.44 0 0 Z " fill="#FAFAFA" transform="translate(180,343)"/>
<path d="M0 0 C-0.59861742 2.35171131 -1.26924352 4.6859378 -2 7 C-2.66 7.33 -3.32 7.66 -4 8 C-4.99 7.67 -5.98 7.34 -7 7 C-8.8096818 6.88119646 -10.62396447 6.8248035 -12.4375 6.8125 C-13.38496094 6.79832031 -14.33242187 6.78414063 -15.30859375 6.76953125 C-18.09388986 7.00803992 -19.66635006 7.49425248 -22 9 C-25.95291562 14.3646712 -25.80363875 20.614566 -25 27 C-23.97040753 29.67996863 -23.01898088 30.86564879 -21 33 C-18.11788698 33.96070434 -16.30149956 34.10581883 -13.3125 34.0625 C-11.889375 34.041875 -10.46625 34.02125 -9 34 C-9 31.03 -9 28.06 -9 25 C-11.64 25 -14.28 25 -17 25 C-17 22.69 -17 20.38 -17 18 C-11.39 18 -5.78 18 0 18 C0 25.26 0 32.52 0 40 C-6.81783166 43.40891583 -17.32047225 44.34132863 -24.6875 41.9375 C-30.27945901 38.66673152 -33.46622224 34.33594724 -35.49609375 28.26953125 C-37.10721685 21.01323265 -36.69930266 13.53344582 -33 7 C-24.75296956 -3.36769541 -11.98954822 -4.55529948 0 0 Z " fill="#FBFBFB" transform="translate(91,348)"/>
<path d="M0 0 C3.42800477 2.39163123 4.91402978 4.05521798 6.6875 7.875 C7.00665364 11.61218614 6.8711075 15.1110463 6.6875 18.875 C-0.2425 18.875 -7.1725 18.875 -14.3125 18.875 C-12.14583333 24.70833333 -12.14583333 24.70833333 -9.3125 25.875 C-6.75442238 25.78589842 -4.2362399 25.64205754 -1.6875 25.4375 C-0.62789062 25.35918945 -0.62789062 25.35918945 0.453125 25.27929688 C2.19829987 25.14958793 3.94295725 25.01295046 5.6875 24.875 C5.6875 26.855 5.6875 28.835 5.6875 30.875 C-1.38014658 33.90399139 -6.43096053 35.12498729 -14 32.6875 C-18.49811678 30.22626629 -21.66486998 27.81789005 -23.3125 22.875 C-24.26277159 9.18743421 -24.26277159 9.18743421 -20.3125 3.875 C-14.28597146 -1.6995389 -7.69928026 -2.6148499 0 0 Z " fill="#F9F9F9" transform="translate(220.3125,357.125)"/>
<path d="M0 0 C2.97 0 5.94 0 9 0 C9.02505615 0.68626465 9.0501123 1.3725293 9.07592773 2.07958984 C9.19171427 5.17825817 9.31451885 8.27660923 9.4375 11.375 C9.47681641 12.45523437 9.51613281 13.53546875 9.55664062 14.6484375 C9.61948242 16.1953125 9.61948242 16.1953125 9.68359375 17.7734375 C9.72025146 18.72653809 9.75690918 19.67963867 9.79467773 20.66162109 C9.85763465 23.02132349 9.85763465 23.02132349 11 25 C14.41642759 25.25015873 14.41642759 25.25015873 18 25 C20.15749784 21.76375324 20.28360488 20.65605934 20.4140625 16.89453125 C20.45273437 15.91162109 20.49140625 14.92871094 20.53125 13.91601562 C20.5621875 12.89185547 20.593125 11.86769531 20.625 10.8125 C20.66367187 9.77673828 20.70234375 8.74097656 20.7421875 7.67382812 C20.83647869 5.11617973 20.91932918 2.55811422 21 0 C24.3 0 27.6 0 31 0 C31 10.89 31 21.78 31 33 C28.36 33 25.72 33 23 33 C23 31.68 23 30.36 23 29 C22.34 29 21.68 29 21 29 C21 29.66 21 30.32 21 31 C16.46385807 33.90778329 13.29886176 34.37177076 8.12109375 33.5859375 C5.06582985 32.74194195 3.18514763 31.25343349 1 29 C-0.38308781 26.23382437 -0.11210196 23.98982 -0.09765625 20.8984375 C-0.09443359 19.68671875 -0.09121094 18.475 -0.08789062 17.2265625 C-0.07951172 15.95554687 -0.07113281 14.68453125 -0.0625 13.375 C-0.05798828 12.09625 -0.05347656 10.8175 -0.04882812 9.5 C-0.03701203 6.33328708 -0.02053815 3.16666644 0 0 Z " fill="#F9F9F9" transform="translate(412,357)"/>
<path d="M0 0 C2.97 0 5.94 0 9 0 C9.02505615 0.68626465 9.0501123 1.3725293 9.07592773 2.07958984 C9.19171427 5.17825817 9.31451885 8.27660923 9.4375 11.375 C9.47681641 12.45523437 9.51613281 13.53546875 9.55664062 14.6484375 C9.61948242 16.1953125 9.61948242 16.1953125 9.68359375 17.7734375 C9.72025146 18.72653809 9.75690918 19.67963867 9.79467773 20.66162109 C9.85763465 23.02132349 9.85763465 23.02132349 11 25 C14.41642759 25.25015873 14.41642759 25.25015873 18 25 C20.15749784 21.76375324 20.28360488 20.65605934 20.4140625 16.89453125 C20.45273438 15.91162109 20.49140625 14.92871094 20.53125 13.91601562 C20.5621875 12.89185547 20.593125 11.86769531 20.625 10.8125 C20.66367188 9.77673828 20.70234375 8.74097656 20.7421875 7.67382812 C20.83647869 5.11617973 20.91932918 2.55811422 21 0 C24.3 0 27.6 0 31 0 C31 10.89 31 21.78 31 33 C28.36 33 25.72 33 23 33 C22.34 32.01 21.68 31.02 21 30 C20.59394531 30.47695313 20.18789062 30.95390625 19.76953125 31.4453125 C16.67693258 34.16243009 12.99302145 34.11603652 9 34 C4.72954415 32.4974322 2.30451345 30.88032371 0 27 C-0.34057617 24.06738281 -0.34057617 24.06738281 -0.29296875 20.703125 C-0.28330078 19.49785156 -0.27363281 18.29257812 -0.26367188 17.05078125 C-0.23853516 15.79652344 -0.21339844 14.54226563 -0.1875 13.25 C-0.17396484 11.98027344 -0.16042969 10.71054687 -0.14648438 9.40234375 C-0.1111324 6.26780156 -0.06178248 3.13411455 0 0 Z " fill="#F7F7F7" transform="translate(101,357)"/>
<path d="M0 0 C2.99441241 1.69953137 4.40075792 3.44712139 6.3125 6.3125 C6.76660156 9.35864258 6.76660156 9.35864258 6.703125 12.70703125 C6.68378906 14.51010742 6.68378906 14.51010742 6.6640625 16.34960938 C6.63054687 17.59548828 6.59703125 18.84136719 6.5625 20.125 C6.54445313 21.39021484 6.52640625 22.65542969 6.5078125 23.95898438 C6.46073916 27.07759335 6.39499094 30.19465973 6.3125 33.3125 C3.3425 33.3125 0.3725 33.3125 -2.6875 33.3125 C-2.71255615 32.62623535 -2.7376123 31.9399707 -2.76342773 31.23291016 C-2.87921427 28.13424183 -3.00201885 25.03589077 -3.125 21.9375 C-3.16431641 20.85726563 -3.20363281 19.77703125 -3.24414062 18.6640625 C-3.28603516 17.6328125 -3.32792969 16.6015625 -3.37109375 15.5390625 C-3.40775146 14.58596191 -3.44440918 13.63286133 -3.48217773 12.65087891 C-3.54513465 10.29117651 -3.54513465 10.29117651 -4.6875 8.3125 C-6.45834833 7.3682408 -6.45834833 7.3682408 -8.6875 7.3125 C-11.4375 8.39583333 -11.4375 8.39583333 -13.6875 10.3125 C-14.65332297 13.14014584 -14.86335429 15.88770499 -15.00390625 18.859375 C-15.04580078 19.70371094 -15.08769531 20.54804688 -15.13085938 21.41796875 C-15.17017578 22.29066406 -15.20949219 23.16335938 -15.25 24.0625 C-15.29318359 24.95066406 -15.33636719 25.83882813 -15.38085938 26.75390625 C-15.48663495 28.93993472 -15.5875426 31.12619777 -15.6875 33.3125 C-18.6575 33.3125 -21.6275 33.3125 -24.6875 33.3125 C-24.6875 22.4225 -24.6875 11.5325 -24.6875 0.3125 C-22.3775 0.3125 -20.0675 0.3125 -17.6875 0.3125 C-17.0275 1.3025 -16.3675 2.2925 -15.6875 3.3125 C-14.841875 2.6525 -13.99625 1.9925 -13.125 1.3125 C-8.45798116 -1.40285642 -5.15686194 -1.31919724 0 0 Z " fill="#FDFDFD" transform="translate(296.6875,356.6875)"/>
<path d="M0 0 C7.10245508 -0.02464156 14.20488551 -0.042832 21.30737305 -0.05493164 C23.72567172 -0.05997349 26.14396733 -0.06680678 28.56225586 -0.07543945 C32.02979283 -0.08751157 35.49728966 -0.09322963 38.96484375 -0.09765625 C40.05337143 -0.10281754 41.14189911 -0.10797882 42.26341248 -0.11329651 C43.76485558 -0.11340981 43.76485558 -0.11340981 45.29663086 -0.11352539 C46.62566689 -0.11685631 46.62566689 -0.11685631 47.98155212 -0.12025452 C50 0 50 0 51 1 C51 4.3 51 7.6 51 11 C34.17 11 17.34 11 0 11 C0 7.37 0 3.74 0 0 Z " fill="#FBFBFB" transform="translate(330,54)"/>
<path d="M0 0 C2.91041452 2.01238121 4.40654734 4.63049387 5.8125 7.875 C6.39932221 14.52565172 6.35808957 20.0723601 3 26 C0.61449866 28.31533953 -0.87344616 28.95566336 -4.18359375 29.0859375 C-8.03315925 28.84573473 -10.37417827 28.4693663 -13.5 26.125 C-17.37731814 20.63213263 -16.5525429 13.42423211 -16 7 C-13.23449546 -0.44458094 -7.17790028 -1.20760272 0 0 Z " fill="#010101" transform="translate(388,354)"/>
<path d="M0 0 C2.97 0 5.94 0 9 0 C9 15.18 9 30.36 9 46 C6.03 46 3.06 46 0 46 C0 30.82 0 15.64 0 0 Z " fill="#FEFEFE" transform="translate(235,344)"/>
<path d="M0 0 C2.97 0 5.94 0 9 0 C9 10.89 9 21.78 9 33 C6.03 33 3.06 33 0 33 C0 22.11 0 11.22 0 0 Z " fill="#FBFBFB" transform="translate(254,357)"/>
<path d="M0 0 C2.97 0 5.94 0 9 0 C9 10.89 9 21.78 9 33 C6.03 33 3.06 33 0 33 C0 22.11 0 11.22 0 0 Z " fill="#FEFEFE" transform="translate(141,357)"/>
<path d="M0 0 C3.5 0.5 3.5 0.5 5.1953125 1.625 C7.12415552 4.39698997 6.89755926 6.66122998 6.875 10 C6.88273438 11.1446875 6.89046875 12.289375 6.8984375 13.46875 C6.5 16.5 6.5 16.5 5.1953125 18.375 C2.26484745 20.3196404 -0.11783342 19.98316665 -3.5 19.5 C-6.36431403 16.63568597 -6.71220253 13.90062743 -6.875 10 C-6.64438209 4.47439488 -6.03301795 0.86185971 0 0 Z " fill="#030303" transform="translate(173.5,363.5)"/>
<path d="M0 0 C1.93166016 0.01740234 1.93166016 0.01740234 3.90234375 0.03515625 C5.19269531 0.04417969 6.48304688 0.05320312 7.8125 0.0625 C8.81152344 0.07410156 9.81054688 0.08570313 10.83984375 0.09765625 C11.16984375 1.74765625 11.49984375 3.39765625 11.83984375 5.09765625 C7.29353174 7.75891206 4.10171321 8.58486639 -1.16015625 8.09765625 C-3.59765625 7.09765625 -3.59765625 7.09765625 -5.16015625 6.09765625 C-4.08838165 0.12634059 -4.08838165 0.12634059 0 0 Z " fill="#040404" transform="translate(321.16015625,390.90234375)"/>
<path d="M0 0 C3.0625 0.1875 3.0625 0.1875 5.0625 2.1875 C5.3125 5.6875 5.3125 5.6875 5.0625 9.1875 C3.0625 11.1875 3.0625 11.1875 0.0625 11.5 C-0.9275 11.396875 -1.9175 11.29375 -2.9375 11.1875 C-4.9375 8.1875 -4.9375 8.1875 -4.625 4.5625 C-3.74428643 0.23899701 -3.74428643 0.23899701 0 0 Z " fill="#040404" transform="translate(323.9375,361.8125)"/>
<path d="M0 0 C3.5625 0.375 3.5625 0.375 5.5 2.1875 C6.5625 4.375 6.5625 4.375 6.5625 7.375 C2.2725 7.375 -2.0175 7.375 -6.4375 7.375 C-5.07318773 0.55343866 -5.07318773 0.55343866 0 0 Z " fill="#131313" transform="translate(212.4375,362.625)"/>
<path d="M0 0 C1.134375 0.020625 2.26875 0.04125 3.4375 0.0625 C4.5625 5.8125 4.5625 5.8125 3.4375 8.0625 C0.0625 8.1875 0.0625 8.1875 -3.5625 8.0625 C-4.2225 7.4025 -4.8825 6.7425 -5.5625 6.0625 C-4.83351201 0.08479846 -4.83351201 0.08479846 0 0 Z " fill="#FAFAFA" transform="translate(258.5625,343.9375)"/>
<path d="M0 0 C1.134375 0.020625 2.26875 0.04125 3.4375 0.0625 C4.5625 2.375 4.5625 2.375 5.4375 5.0625 C4.4475 6.5475 4.4475 6.5475 3.4375 8.0625 C-0.125 8.3125 -0.125 8.3125 -3.5625 8.0625 C-4.5625 7.0625 -4.5625 7.0625 -4.6875 4.0625 C-4.50687014 -0.27261656 -4.44520527 0.07798606 0 0 Z " fill="#FBFBFB" transform="translate(145.5625,343.9375)"/>
<path d="M0 0 C1.60332791 -0.08121924 3.20784026 -0.13929134 4.8125 -0.1875 C6.15248047 -0.23970703 6.15248047 -0.23970703 7.51953125 -0.29296875 C10.41647515 0.04918998 11.22555028 0.75393573 13 3 C11.02013918 2.88652381 9.04108402 2.7589065 7.0625 2.625 C5.96035156 2.55539062 4.85820312 2.48578125 3.72265625 2.4140625 C2.82417969 2.27742187 1.92570312 2.14078125 1 2 C0.67 1.34 0.34 0.68 0 0 Z " fill="#B9B9B9" transform="translate(436,0)"/>
<path d="M0 0 C0.66 0.33 1.32 0.66 2 1 C0.93283928 2.20205464 -0.15438337 3.38632333 -1.25 4.5625 C-2.15492188 5.55443359 -2.15492188 5.55443359 -3.078125 6.56640625 C-5 8 -5 8 -7.234375 7.71484375 C-7.81703125 7.47894531 -8.3996875 7.24304688 -9 7 C-7.35 6.34 -5.7 5.68 -4 5 C-4 4.34 -4 3.68 -4 3 C-2 1.375 -2 1.375 0 0 Z " fill="#B0B0B0" transform="translate(480,488)"/>
<path d="M0 0 C-0.33 0.99 -0.66 1.98 -1 3 C-3.64 3 -6.28 3 -9 3 C-8 1 -8 1 -6.1875 0.375 C-4 0 -4 0 0 0 Z " fill="#C1C1C1" transform="translate(454,505)"/>
<path d="M0 0 C2.31 1.65 4.62 3.3 7 5 C4 6 4 6 1.8125 5.0625 C1.214375 4.711875 0.61625 4.36125 0 4 C0 2.68 0 1.36 0 0 Z " fill="#9E9E9E" transform="translate(31,489)"/>
<path d="M0 0 C7.75 0.75 7.75 0.75 10 3 C3.47692308 3.36923077 3.47692308 3.36923077 1.0625 1.5 C0.5365625 0.7575 0.5365625 0.7575 0 0 Z " fill="#A0A0A0" transform="translate(58,505)"/>
</svg>
