<?xml version="1.0" standalone="no"?>
<!DOCTYPE svg PUBLIC "-//W3C//DTD SVG 20010904//EN"
 "http://www.w3.org/TR/2001/REC-SVG-20010904/DTD/svg10.dtd">
<svg version="1.0" xmlns="http://www.w3.org/2000/svg"
 width="300.000000pt" height="299.000000pt" viewBox="0 0 300.000000 299.000000"
 preserveAspectRatio="xMidYMid meet">

<g transform="translate(0.000000,299.000000) scale(0.100000,-0.100000)"
fill="#000000" stroke="none">
<path d="M413 2980 c-80 -12 -171 -60 -246 -129 -86 -81 -136 -169 -162 -286
-11 -52 20 -9 50 70 31 78 74 142 132 195 61 57 93 75 180 104 45 15 87 34 93
42 7 8 11 13 9 13 -2 -1 -27 -5 -56 -9z"/>
<path d="M2554 2971 c10 -10 38 -24 63 -30 43 -11 142 -56 153 -70 3 -3 22
-19 44 -35 48 -36 115 -141 145 -226 31 -86 39 -93 30 -24 -4 32 -23 87 -41
123 -35 69 -130 181 -154 181 -8 0 -14 3 -14 8 0 13 -103 61 -165 77 -76 19
-82 19 -61 -4z"/>
<path d="M248 2973 c7 -3 16 -2 19 1 4 3 -2 6 -13 5 -11 0 -14 -3 -6 -6z"/>
<path d="M2985 2881 c-3 -5 -1 -12 5 -16 5 -3 10 1 10 9 0 18 -6 21 -15 7z"/>
<path d="M1927 2682 c-21 -23 -22 -61 -1 -90 14 -21 22 -22 163 -22 131 0 150
2 164 18 19 21 22 64 7 93 -10 17 -23 19 -164 19 -135 0 -155 -2 -169 -18z
m311 -44 l-3 -33 -147 -3 -148 -3 0 36 0 35 151 0 150 0 -3 -32z"/>
<path d="M613 2552 c-60 -6 -58 17 -58 -604 l0 -570 24 -19 c20 -16 40 -19
152 -19 143 0 149 3 149 71 0 47 -22 58 -112 59 l-78 0 -2 453 c-2 248 -2 462
0 475 3 21 8 22 82 22 92 0 110 11 110 70 0 59 -24 70 -140 68 -52 -1 -109 -4
-127 -6z m245 -63 l-3 -31 -100 -2 -100 -1 -2 -507 -2 -508 104 0 105 0 0 -35
0 -35 -135 0 -135 0 0 575 0 575 136 0 135 0 -3 -31z"/>
<path d="M2165 2552 c-34 -7 -45 -23 -45 -62 0 -57 21 -70 118 -70 l82 0 0
-475 0 -475 -83 0 c-96 0 -117 -13 -117 -71 0 -55 10 -59 157 -59 120 0 135 2
153 20 20 20 20 33 20 589 l0 570 -24 19 c-21 16 -41 19 -133 19 -59 0 -117
-2 -128 -5z m255 -607 l0 -575 -141 0 -140 0 3 33 3 32 105 3 105 3 -3 509 -2
510 -105 0 -105 0 0 30 0 30 140 0 140 0 0 -575z"/>
<path d="M1351 2534 c-155 -41 -317 -175 -384 -316 -74 -156 -84 -315 -27
-468 34 -94 74 -155 154 -236 113 -112 243 -164 408 -164 117 0 165 12 276 67
122 61 228 180 280 313 102 263 10 563 -221 717 -111 74 -178 95 -317 99 -77
2 -133 -2 -169 -12z m300 -32 c154 -43 283 -148 356 -288 47 -92 63 -156 63
-258 0 -101 -14 -167 -54 -250 -41 -86 -75 -129 -146 -190 -194 -165 -475
-180 -690 -35 -73 49 -129 110 -172 189 -58 105 -72 161 -72 280 0 182 61 315
196 434 70 61 180 114 268 129 67 11 190 6 251 -11z"/>
<path d="M1405 2390 c-111 -24 -214 -97 -280 -198 -166 -258 -29 -599 272
-677 73 -19 133 -19 208 0 91 23 144 53 213 122 85 84 122 164 129 277 10 147
-34 262 -138 361 -84 80 -161 114 -274 120 -50 2 -108 0 -130 -5z m247 -51
c101 -39 167 -95 217 -184 40 -70 55 -142 48 -240 -6 -104 -36 -174 -107 -249
-199 -210 -554 -158 -686 102 -27 54 -29 64 -29 182 0 117 2 129 28 183 53
108 177 202 297 226 61 13 174 3 232 -20z"/>
<path d="M819 979 c-17 -17 -20 -28 -14 -57 7 -36 6 -36 -12 -19 -25 22 -66
22 -86 -1 -10 -10 -17 -41 -20 -77 l-3 -60 -2 61 c-2 71 -22 98 -69 92 -20 -2
-33 -12 -44 -34 -12 -26 -19 -30 -33 -22 -16 9 -16 11 -1 21 8 7 17 26 18 42
5 66 -126 85 -193 28 -43 -36 -60 -74 -60 -133 0 -60 17 -97 60 -134 27 -22
41 -26 97 -26 58 0 68 3 91 28 l27 28 23 -27 c22 -27 27 -28 99 -27 50 1 80 7
90 16 12 12 16 12 32 -2 10 -9 27 -16 38 -16 21 0 53 29 53 48 0 6 13 -2 29
-18 26 -27 34 -29 101 -28 69 2 73 3 90 31 17 27 19 28 31 10 35 -46 126 -59
171 -24 24 19 24 19 36 0 15 -23 64 -25 82 -4 12 14 15 14 30 0 21 -19 64 -19
80 0 12 14 15 14 30 0 36 -33 89 -8 92 43 4 69 5 83 12 89 3 3 6 -21 6 -54 0
-64 17 -93 56 -93 11 -1 31 -18 46 -39 31 -46 80 -59 146 -41 76 20 109 105
60 157 -17 18 -19 26 -10 35 7 7 12 21 12 31 0 10 8 32 17 48 16 27 16 29 0
47 -38 41 -168 34 -206 -12 -13 -16 -16 -15 -42 10 -18 17 -38 26 -56 26 -15
-1 -48 -2 -73 -2 -26 -1 -52 -8 -62 -17 -19 -17 -21 -14 -18 30 2 31 -24 67
-48 67 -9 0 -24 -7 -34 -17 -17 -15 -19 -15 -36 0 -24 22 -65 21 -85 -1 -10
-11 -17 -36 -17 -61 l0 -42 -31 23 c-43 32 -96 30 -143 -5 l-36 -28 0 49 c0
53 -20 82 -57 82 -24 0 -53 -30 -53 -56 0 -14 -8 -19 -31 -20 -18 -1 -41 -12
-58 -28 -24 -23 -29 -25 -34 -12 -4 9 -4 29 -1 45 5 21 1 34 -15 50 -27 27
-45 27 -72 0z m62 -25 c11 -14 10 -18 -5 -29 -22 -17 -46 -9 -46 14 0 34 28
42 51 15z m229 -124 c0 -131 -1 -140 -19 -140 -10 0 -22 7 -25 16 -6 16 -8 16
-24 0 -49 -43 -112 2 -112 80 0 57 16 90 51 105 24 9 33 9 54 -5 l25 -16 0 50
c0 47 2 50 25 50 l25 0 0 -140z m330 0 l0 -140 -30 0 -30 0 0 140 0 140 30 0
30 0 0 -140z m105 115 c0 -22 -31 -33 -47 -17 -17 17 -1 44 24 40 15 -2 23
-10 23 -23z m-1021 -1 c12 -4 13 -11 4 -29 -9 -20 -13 -21 -37 -12 -42 16 -79
1 -98 -37 -31 -65 5 -139 62 -128 19 3 25 10 25 32 0 24 -3 27 -25 22 -22 -4
-25 -1 -25 22 0 25 2 26 55 26 l55 0 0 -65 c0 -75 -10 -85 -85 -85 -66 0 -100
21 -120 74 -23 60 -13 110 30 153 29 29 39 33 88 33 31 0 62 -3 71 -6z m794
-80 c12 -14 22 -38 22 -55 l0 -29 -65 0 c-67 0 -77 -7 -48 -35 12 -13 26 -15
60 -10 38 5 43 4 43 -13 0 -47 -120 -41 -157 7 -18 23 -16 102 3 129 34 48
102 51 142 6z m436 15 c24 -19 26 -26 26 -105 0 -83 0 -84 -25 -84 -24 0 -25
2 -25 68 0 75 -9 96 -36 90 -30 -5 -46 -47 -40 -105 5 -53 5 -53 -25 -53 l-29
0 0 100 c0 100 0 100 25 100 14 0 25 -4 25 -9 0 -6 12 -3 28 5 36 18 44 18 76
-7z m227 11 c19 0 29 -5 29 -15 0 -8 -7 -15 -15 -15 -11 0 -14 -7 -9 -24 8
-34 -34 -76 -76 -76 -21 0 -30 -4 -27 -12 2 -7 11 -12 18 -10 23 6 78 -8 94
-24 22 -22 19 -51 -10 -79 -20 -21 -34 -25 -81 -25 -84 0 -125 47 -72 84 18
13 19 18 8 31 -9 11 -10 18 -1 29 8 10 8 20 -3 41 -29 55 20 111 88 100 16 -3
41 -5 57 -5z m-1329 -77 c3 -73 4 -78 26 -79 31 -2 42 23 42 95 0 60 1 61 28
61 l27 0 0 -100 c0 -97 -1 -100 -22 -100 -14 0 -23 6 -23 16 0 14 -2 14 -22 0
-32 -23 -74 -20 -98 6 -17 18 -20 35 -20 100 l0 78 30 0 29 0 3 -77z m228 -23
c0 -100 0 -100 -25 -100 -25 0 -25 0 -25 100 0 100 0 100 25 100 25 0 25 0 25
-100z m670 0 l0 -100 -30 0 -30 0 0 100 0 100 30 0 30 0 0 -100z"/>
<path d="M989 829 c-16 -30 -3 -86 22 -94 29 -10 49 12 49 54 0 59 -47 85 -71
40z m41 -39 c0 -11 -4 -20 -10 -20 -5 0 -10 9 -10 20 0 11 5 20 10 20 6 0 10
-9 10 -20z"/>
<path d="M1216 834 c-9 -24 -9 -24 35 -24 33 0 40 3 35 16 -3 9 -6 18 -6 20 0
12 -59 2 -64 -12z"/>
<path d="M1887 853 c-13 -12 -7 -54 9 -60 23 -8 47 20 39 46 -6 20 -34 28 -48
14z"/>
<path d="M1867 683 c-27 -27 20 -51 66 -34 44 17 35 41 -16 41 -24 0 -47 -3
-50 -7z"/>
<path d="M2195 976 c-86 -38 -118 -141 -74 -234 31 -63 69 -84 143 -79 53 3
62 7 94 42 21 23 37 34 40 27 2 -7 15 -26 28 -42 24 -28 28 -29 105 -28 66 1
82 4 89 19 6 10 10 61 10 114 0 105 -9 125 -53 125 -39 0 -57 -29 -59 -96 l-1
-59 -6 61 c-3 34 -12 68 -20 77 -17 21 -59 22 -80 2 -15 -12 -19 -11 -36 16
-22 33 -88 69 -126 69 -13 -1 -37 -7 -54 -14z m126 -36 c34 -19 52 -68 47
-133 -4 -52 -9 -64 -36 -88 -58 -52 -159 -32 -188 36 -28 67 -15 141 30 177
24 20 115 25 147 8z m161 -127 c3 -73 4 -78 26 -79 31 -2 42 23 42 95 l0 61
30 0 30 0 0 -100 c0 -100 0 -100 -25 -100 -17 0 -25 6 -25 17 0 15 -1 15 -18
0 -26 -24 -77 -21 -102 5 -17 18 -20 35 -20 100 l0 78 30 0 29 0 3 -77z"/>
<path d="M2206 888 c-9 -13 -16 -43 -16 -69 0 -55 21 -79 69 -79 27 0 34 5 47
37 28 65 -2 133 -57 133 -17 0 -34 -8 -43 -22z m72 -65 c-3 -44 -5 -48 -28
-48 -23 0 -25 4 -28 48 -3 47 -3 47 28 47 31 0 31 0 28 -47z"/>
<path d="M0 433 c0 -23 35 -123 60 -173 58 -114 214 -234 329 -254 34 -6 34
-6 16 14 -10 11 -23 20 -29 20 -7 0 -43 15 -82 34 -115 55 -210 166 -250 293
-15 47 -44 91 -44 66z"/>
<path d="M2977 413 c-8 -16 -20 -46 -27 -67 -42 -129 -160 -249 -291 -297 -79
-29 -97 -50 -32 -38 162 30 335 210 362 377 4 28 7 52 5 52 -2 0 -10 -12 -17
-27z"/>
</g>
</svg>
