<?xml version="1.0" standalone="no"?>
<!DOCTYPE svg PUBLIC "-//W3C//DTD SVG 20010904//EN"
 "http://www.w3.org/TR/2001/REC-SVG-20010904/DTD/svg10.dtd">
<svg version="1.0" xmlns="http://www.w3.org/2000/svg"
 width="300.000000pt" height="212.000000pt" viewBox="0 0 300.000000 212.000000"
 preserveAspectRatio="xMidYMid meet" >
<metadata>
Created by potrace 1.10, written by Peter Selinger 2001-2011
</metadata>
<g transform="translate(0.000000,212.000000) scale(0.100000,-0.100000)"
fill="#FFFFFF" stroke="none">
<path d="M820 1770 c-41 -11 -113 -39 -160 -62 -69 -34 -103 -61 -181 -138
-83 -82 -103 -108 -142 -190 -59 -122 -79 -207 -78 -340 0 -231 101 -440 278
-581 285 -226 658 -222 951 12 29 22 52 45 52 50 0 18 -54 -4 -104 -43 -123
-94 -267 -142 -431 -142 -203 0 -353 62 -495 204 -128 129 -186 243 -210 420
-33 238 80 504 273 647 137 101 265 143 432 143 271 0 505 -140 628 -377 25
-49 37 -63 55 -63 l22 0 -26 53 c-68 134 -183 259 -305 330 -110 65 -204 89
-354 94 -106 2 -144 -1 -205 -17z"/>
<path d="M998 1645 c-4 -11 -14 -56 -23 -100 -9 -44 -18 -87 -21 -96 -3 -9
-28 -22 -62 -32 -31 -9 -77 -29 -101 -45 l-44 -30 -46 33 c-118 83 -117 83
-44 -21 l43 -62 -34 -50 c-18 -28 -39 -73 -46 -101 -13 -56 -7 -52 -135 -77
-49 -10 -93 -20 -97 -24 -4 -3 44 -16 106 -29 l114 -23 12 -47 c6 -25 22 -65
35 -89 l24 -43 -41 -67 c-22 -37 -56 -89 -74 -117 -19 -27 -34 -53 -34 -58 0
-4 19 5 43 21 23 16 79 52 124 80 68 42 84 48 93 37 14 -17 112 -55 140 -55
22 0 23 -4 46 -125 9 -49 20 -94 24 -98 4 -4 17 44 30 108 23 113 24 115 51
115 22 0 30 7 42 38 8 20 14 38 13 39 0 1 -28 -6 -61 -14 -70 -18 -147 -8
-223 28 -146 71 -220 259 -161 414 31 82 112 163 194 194 76 29 188 27 251 -5
l41 -20 129 82 c71 46 132 83 135 83 6 1 -312 -523 -325 -537 -8 -7 -45 60
-56 100 -8 29 -17 39 -38 43 -32 7 -112 45 -112 54 0 3 31 24 67 45 37 22 63
41 56 43 -24 8 -136 -75 -166 -123 -26 -43 -29 -54 -24 -103 7 -66 45 -126 98
-153 l37 -19 71 46 c41 27 82 63 99 88 41 59 332 535 339 553 3 8 -56 -24
-130 -70 l-136 -86 -53 25 c-29 14 -67 27 -84 31 -31 6 -31 7 -56 122 -15 73
-27 109 -30 97z m29 -207 c14 -31 9 -38 -29 -38 -32 0 -34 9 -12 52 17 32 23
30 41 -14z m-97 -376 c0 -63 56 -116 99 -92 17 9 41 -3 41 -22 0 -16 -89 -68
-107 -62 -39 14 -72 57 -84 110 -10 46 -10 56 5 78 25 39 46 33 46 -12z m102
11 c32 -29 16 -73 -27 -73 -58 0 -59 88 -1 90 5 0 18 -7 28 -17z m-392 -39 c0
-39 -3 -40 -49 -15 l-33 18 33 20 c42 25 49 21 49 -23z m109 -257 c24 -27 24
-28 -47 -66 -50 -27 -60 -23 -38 13 9 14 23 37 31 51 19 31 26 31 54 2z m277
-105 c8 -5 6 -19 -6 -47 l-17 -40 -20 42 -21 42 22 4 c11 2 23 5 26 5 3 1 10
-2 16 -6z"/>
<path d="M913 1312 c-67 -24 -118 -64 -154 -120 -126 -199 31 -460 265 -439
104 10 131 22 149 67 17 45 13 49 -19 19 -51 -48 -173 -55 -244 -13 -84 49
-134 176 -112 282 25 119 86 167 213 167 66 0 81 -4 117 -28 23 -15 42 -26 42
-24 0 2 -5 18 -11 36 -21 59 -150 87 -246 53z"/>
<path d="M1370 1230 c0 -40 4 -70 10 -70 6 0 10 16 10 35 0 28 4 35 20 35 11
0 20 4 20 9 0 5 -9 7 -20 4 -15 -4 -20 0 -20 16 0 16 6 21 25 21 14 0 25 5 25
10 0 6 -16 10 -35 10 l-35 0 0 -70z"/>
<path d="M1463 1263 c-16 -6 -18 -103 -3 -103 6 0 10 20 10 45 0 42 7 54 23
38 4 -3 2 -12 -4 -20 -9 -10 -7 -19 5 -38 18 -28 44 -33 52 -10 8 20 44 19 60
-2 25 -36 25 -3 -2 48 l-26 53 -25 -48 c-20 -39 -27 -45 -38 -36 -10 8 -12 17
-5 29 14 27 -16 55 -47 44z"/>
<path d="M1760 1250 c-28 -28 -25 -46 12 -81 27 -24 29 -29 13 -29 -13 0 -16
-3 -9 -10 14 -14 46 -1 40 16 -3 7 -1 16 4 19 19 12 11 26 -8 16 -22 -11 -37
-3 -45 24 -10 30 7 49 37 43 28 -6 36 6 10 16 -25 9 -33 7 -54 -14z"/>
<path d="M1862 1254 c-33 -23 -27 -75 10 -88 55 -19 93 55 46 88 -28 20 -28
20 -56 0z m54 -30 c8 -30 -6 -47 -32 -42 -35 6 -30 68 5 68 14 0 23 -9 27 -26z"/>
<path d="M2013 1263 c-18 -6 -16 -38 2 -53 16 -14 20 -40 6 -40 -5 0 -11 5
-13 12 -3 9 -6 9 -12 0 -9 -14 17 -27 39 -18 8 3 15 14 15 24 0 11 -7 25 -15
32 -8 7 -15 17 -15 22 0 6 7 8 15 4 8 -3 15 -1 15 3 0 11 -22 19 -37 14z"/>
<path d="M2093 1262 c-20 -3 -23 -9 -23 -53 0 -48 1 -49 30 -49 17 0 30 5 30
10 0 6 -9 10 -20 10 -25 0 -27 27 -2 33 16 4 16 5 0 6 -26 2 -22 29 5 33 12 2
18 5 12 9 -5 3 -20 3 -32 1z"/>
<path d="M1640 1209 c0 -27 4 -48 8 -45 5 3 7 20 4 38 l-4 33 41 -40 41 -39 0
52 c0 29 -4 52 -10 52 -5 0 -10 -15 -10 -32 l0 -32 -29 32 c-17 17 -32 32 -35
32 -3 0 -6 -23 -6 -51z"/>
<path d="M1960 1210 c0 -27 5 -50 10 -50 6 0 10 23 10 50 0 28 -4 50 -10 50
-5 0 -10 -22 -10 -50z"/>
<path d="M1276 930 l-83 -170 29 0 c22 0 28 5 28 20 0 12 7 34 15 50 14 28 20
30 75 32 33 1 68 2 77 2 11 1 22 -15 34 -49 16 -47 20 -50 54 -53 20 -2 35 0
33 5 -2 4 -34 71 -72 148 -37 77 -72 150 -77 163 -5 12 -13 22 -19 22 -6 0
-48 -76 -94 -170z m114 21 l29 -61 -60 0 c-33 0 -59 4 -57 8 2 4 14 33 27 65
14 31 26 55 29 53 2 -2 17 -32 32 -65z"/>
<path d="M1585 925 l0 -165 70 0 c83 0 135 22 149 63 14 38 -3 79 -40 98 l-31
15 23 21 c23 21 30 55 18 88 -11 27 -60 45 -126 45 l-63 0 0 -165z m120 131
c27 -19 24 -74 -4 -98 -13 -10 -32 -18 -42 -18 -17 0 -19 8 -19 65 0 61 1 65
23 65 13 0 32 -6 42 -14z m25 -156 c20 -20 26 -65 12 -86 -11 -18 -48 -34 -76
-34 -25 0 -26 2 -26 70 l0 70 35 0 c22 0 43 -8 55 -20z"/>
<path d="M1875 925 l0 -165 31 0 31 0 -5 70 c-5 70 -5 70 21 70 20 0 35 -14
73 -70 46 -67 49 -70 88 -70 l40 0 -35 38 c-20 20 -48 53 -63 73 l-27 37 31
30 c31 32 38 68 20 103 -18 32 -64 49 -137 49 l-68 0 0 -165z m135 125 c45
-45 13 -130 -50 -130 l-30 0 0 75 0 75 30 0 c17 0 39 -9 50 -20z"/>
<path d="M2184 925 l0 -165 30 0 31 0 0 165 0 165 -31 0 -31 0 1 -165z"/>
<path d="M2335 925 c0 -158 1 -165 20 -165 19 0 20 5 15 115 -3 63 -3 115 0
115 3 0 57 -52 120 -115 63 -63 118 -115 122 -115 4 0 8 74 10 165 l3 165 -24
0 -24 0 6 -121 5 -122 -122 122 c-66 66 -123 121 -126 121 -3 0 -5 -74 -5
-165z"/>
<path d="M2705 925 l0 -165 33 0 32 0 0 165 0 165 -32 0 -33 0 0 -165z"/>
<path d="M1364 645 l-1 -55 36 1 c31 1 33 2 11 8 -36 10 -39 41 -4 41 15 0 24
3 20 7 -4 4 -15 8 -23 8 -9 0 -18 6 -20 13 -3 7 5 12 21 12 14 0 26 5 26 10 0
6 -15 10 -33 10 l-33 0 0 -55z"/>
<path d="M1440 645 c0 -62 17 -75 22 -17 l3 37 22 -37 c12 -21 27 -38 33 -38
6 0 10 24 10 55 0 30 -4 55 -10 55 -5 0 -10 -17 -10 -37 l-1 -38 -22 37 c-32
55 -47 49 -47 -17z"/>
<path d="M1557 693 c-14 -13 -6 -43 14 -53 22 -12 21 -34 -2 -36 -31 -3 -33
-6 -14 -13 25 -10 55 4 55 26 0 10 -12 27 -27 40 l-28 22 28 1 c15 0 27 5 27
10 0 11 -43 14 -53 3z"/>
<path d="M1630 645 l0 -55 33 1 c29 1 30 2 7 8 -37 10 -39 41 -3 42 27 1 27 1
4 8 -34 9 -39 31 -7 31 14 0 26 5 26 10 0 6 -13 10 -30 10 -30 0 -30 -1 -30
-55z"/>
<path d="M1710 677 c0 -13 -3 -39 -6 -56 -4 -19 -2 -31 4 -31 6 0 12 17 14 38
l4 37 10 -34 c13 -45 30 -50 39 -12 8 40 25 40 25 1 0 -16 5 -30 11 -30 6 0 8
7 5 16 -3 9 -6 33 -6 55 0 28 -4 39 -15 39 -8 0 -15 -4 -15 -9 0 -5 -5 -22
-11 -38 l-11 -28 -12 34 c-15 42 -36 53 -36 18z"/>
<path d="M1830 645 l0 -56 33 3 c31 3 32 4 32 53 0 49 -1 50 -32 53 l-33 3 0
-56z m53 -11 c9 -10 -4 -34 -19 -34 -8 0 -14 9 -14 20 0 19 19 27 33 14z"/>
<path d="M1920 645 l0 -55 33 1 c23 1 26 3 10 6 -20 4 -23 11 -23 54 0 27 -4
49 -10 49 -5 0 -10 -25 -10 -55z"/>
<path d="M1990 645 l0 -55 38 1 c30 2 32 3 10 6 -34 5 -41 43 -8 43 11 0 20 5
20 11 0 6 -9 8 -20 4 -14 -5 -20 -2 -20 9 0 10 9 16 25 16 14 0 25 5 25 10 0
6 -16 10 -35 10 l-35 0 0 -55z"/>
<path d="M2139 684 c-12 -14 -10 -19 14 -38 35 -28 36 -50 2 -42 -14 4 -25 2
-25 -3 0 -13 35 -20 54 -9 24 13 20 39 -11 65 l-28 22 28 1 c15 0 27 5 27 10
0 16 -46 11 -61 -6z"/>
<path d="M2227 682 c-29 -32 -15 -88 23 -92 30 -4 51 0 45 10 -3 5 -11 7 -18
4 -7 -2 -21 2 -31 9 -28 20 -14 67 19 67 13 0 27 5 30 10 11 18 -51 11 -68 -8z"/>
<path d="M2310 681 c-18 -34 -12 -69 15 -87 23 -15 27 -15 50 0 28 18 35 72
13 94 -19 19 -66 15 -78 -7z m68 -32 c4 -34 -22 -57 -43 -39 -16 13 -20 51 -8
64 16 16 48 1 51 -25z"/>
<path d="M2414 645 l0 -55 43 0 c30 0 45 5 49 15 4 8 15 15 25 15 10 0 19 -7
19 -15 0 -8 6 -15 14 -15 11 0 10 11 -7 55 -11 31 -25 54 -31 52 -6 -2 -17
-25 -25 -51 -13 -41 -18 -47 -40 -44 -23 3 -26 7 -27 47 0 25 -5 46 -11 48 -6
2 -10 -18 -9 -52z"/>
<path d="M2590 645 c0 -30 5 -55 10 -55 6 0 10 25 10 55 0 30 -4 55 -10 55 -5
0 -10 -25 -10 -55z"/>
<path d="M2628 645 c-2 -37 1 -55 9 -55 6 0 9 9 6 20 -4 14 0 20 10 20 9 0 19
-9 22 -20 3 -11 11 -20 16 -20 12 0 11 7 -2 31 -7 15 -7 24 2 35 15 19 -5 44
-36 44 -21 0 -23 -5 -27 -55z m50 23 c-7 -19 -38 -22 -38 -4 0 10 9 16 21 16
12 0 19 -5 17 -12z"/>
<path d="M2710 645 l0 -55 36 0 c19 0 33 4 30 9 -3 5 -15 7 -26 4 -15 -4 -20
0 -20 16 0 14 6 21 20 21 11 0 20 5 20 11 0 6 -9 8 -20 4 -14 -5 -20 -2 -20 9
0 9 9 16 20 16 11 0 20 5 20 10 0 6 -13 10 -30 10 -30 0 -30 -1 -30 -55z"/>
</g>
</svg>
